#!OML:ASF G:\JayActor3\Patient Classification 1\Patient 1\Session 5\male.ASF
:FULLY-SPECIFIED
:DEGREES
971
root -29.8706 16.5739 -5.60941 -577.907 90.8132 -594.573
lowerback 36.307 -2.28687 1.58855
upperback 9.48162 -1.38997 -2.35217
thorax -7.66452 -0.15148 -2.86675
lowerneck -0.806623 -0.0280996 2.3919
upperneck -20.3095 1.04385 2.0498
head -6.01652 0.475015 0.166682
rclavicle 1.74931e-014 1.15295e-014
rhumerus -29.9238 -0.101101 -89.9981
rradius 50.7764
rwrist -4.76224
rhand -20.5509 -10.9356
rfingers 7.12502
rthumb 5.80795 -40.836
lclavicle 1.74931e-014 1.15295e-014
lhumerus -25.9543 6.56567 81.2633
lradius 34.7715
lwrist 21.259
lhand -22.757 15.8628
lfingers 7.12502
lthumb 3.67779 45.8108
rfemur -49.6221 -1.12465 25.4284
rtibia 72.6852
rfoot 2.65956 -7.57847
rtoes -14.7698
lfemur -61.7091 7.36463 -26.0833
ltibia 40.3441
lfoot 24.1452 -3.34145
ltoes -9.25139
972
root -29.9949 16.5491 -5.59516 -590.623 90.6609 -607.169
lowerback 36.3269 -2.37331 1.62519
upperback 9.52802 -1.47202 -2.33995
thorax -7.62537 -0.185147 -2.84222
lowerneck -0.859851 -0.0350077 2.40159
upperneck -20.1112 1.03022 2.11396
head -5.94486 0.462533 0.1869
rclavicle 2.5842e-014 9.93923e-015
rhumerus -30.0202 -0.173474 -89.9606
rradius 50.7328
rwrist -4.69402
rhand -20.5273 -10.9235
rfingers 7.12502
rthumb 5.83073 -40.8233
lclavicle 2.5842e-014 9.93923e-015
lhumerus -26.0393 6.52365 81.2867
lradius 34.819
lwrist 21.298
lhand -22.6522 16.086
lfingers 7.12502
lthumb 3.77892 46.0322
rfemur -50.0894 -1.32266 25.5457
rtibia 72.9437
rfoot 2.45732 -7.65401
rtoes -14.7278
lfemur -61.9894 7.35062 -25.9996
ltibia 41.6702
lfoot 22.2194 -3.88525
ltoes -9.77524
973
root -30.1168 16.5229 -5.58204 -606.42 90.5842 -622.822
lowerback 36.3675 -2.44568 1.6662
upperback 9.57037 -1.53516 -2.32882
thorax -7.59708 -0.210118 -2.82811
lowerneck -0.912044 -0.046993 2.40904
upperneck -19.9309 1.01085 2.17898
head -5.87921 0.447613 0.207891
rclavicle 1.47101e-014 1.35174e-014
rhumerus -30.1465 -0.294278 -89.9092
rradius 50.6915
rwrist -4.64852
rhand -20.5393 -10.917
rfingers 7.12502
rthumb 5.81917 -40.8171
lclavicle 1.47101e-014 1.35174e-014
lhumerus -26.133 6.49063 81.3028
lradius 34.8356
lwrist 21.3249
lhand -22.5483 16.1844
lfingers 7.12502
lthumb 3.87929 46.1288
rfemur -50.5402 -1.51067 25.6902
rtibia 73.2216
rfoot 2.26229 -7.77101
rtoes -14.6286
lfemur -62.299 7.35566 -25.8789
ltibia 43.3314
lfoot 20.0613 -4.57827
ltoes -10.514
974
root -30.2382 16.496 -5.56929 -623.779 90.5764 -640.039
lowerback 36.4175 -2.50988 1.70918
upperback 9.60491 -1.58763 -2.31115
thorax -7.57983 -0.23073 -2.812
lowerneck -0.961799 -0.062591 2.40598
upperneck -19.7819 0.987492 2.23963
head -5.82396 0.432092 0.229272
rclavicle 3.57812e-015 5.1684e-015
rhumerus -30.292 -0.447512 -89.8423
rradius 50.6512
rwrist -4.62982
rhand -20.5833 -10.9254
rfingers 7.12502
rthumb 5.7767 -40.8266
lclavicle 3.57812e-015 5.1684e-015
lhumerus -26.2253 6.46212 81.3217
lradius 34.8046
lwrist 21.3039
lhand -22.5268 16.1519
lfingers 7.12502
lthumb 3.9001 46.0959
rfemur -51.0104 -1.68416 25.8509
rtibia 73.505
rfoot 2.11906 -7.90739
rtoes -14.5312
lfemur -62.6588 7.36239 -25.729
ltibia 45.2786
lfoot 17.7881 -5.25482
ltoes -11.398
975
root -30.3578 16.4713 -5.55767 -635.938 90.6257 -652.043
lowerback 36.4926 -2.55851 1.75738
upperback 9.63315 -1.61922 -2.29495
thorax -7.57727 -0.241863 -2.80781
lowerneck -1.00175 -0.079899 2.39877
upperneck -19.667 0.962316 2.2893
head -5.7811 0.41683 0.247778
rclavicle -4.77083e-015 -2.46493e-014
rhumerus -30.4532 -0.63062 -89.764
rradius 50.6022
rwrist -4.62652
rhand -20.6503 -10.9413
rfingers 7.12502
rthumb 5.71196 -40.8444
lclavicle -4.77083e-015 -2.46493e-014
lhumerus -26.3192 6.43808 81.3343
lradius 34.7319
lwrist 21.243
lhand -22.5533 15.9559
lfingers 7.12502
lthumb 3.87449 45.9005
rfemur -51.4569 -1.81377 26.0114
rtibia 73.7636
rfoot 2.04416 -8.02584
rtoes -14.4229
lfemur -63.0187 7.39321 -25.5433
ltibia 47.4635
lfoot 15.4902 -5.7866
ltoes -12.4767
976
root -30.4772 16.4499 -5.54667 -644.228 90.7063 -660.187
lowerback 36.5783 -2.60086 1.81531
upperback 9.65237 -1.64015 -2.2752
thorax -7.58782 -0.248693 -2.80881
lowerneck -1.03574 -0.0972771 2.38669
upperneck -19.5866 0.936712 2.32275
head -5.75007 0.402952 0.261844
rclavicle 7.95139e-016 1.31198e-014
rhumerus -30.6123 -0.827569 -89.675
rradius 50.5341
rwrist -4.62925
rhand -20.7344 -10.9653
rfingers 7.12502
rthumb 5.63078 -40.8705
lclavicle 7.95139e-016 1.31198e-014
lhumerus -26.4084 6.41359 81.346
lradius 34.6383
lwrist 21.1658
lhand -22.6271 15.7892
lfingers 7.12502
lthumb 3.80321 45.735
rfemur -51.908 -1.91016 26.1681
rtibia 73.9851
rfoot 2.06093 -8.115
rtoes -14.3351
lfemur -63.3999 7.42691 -25.3256
ltibia 49.8373
lfoot 13.2834 -6.0808
ltoes -13.8148
977
root -30.5952 16.4332 -5.53694 -647.877 90.7924 -663.693
lowerback 36.6755 -2.63307 1.87578
upperback 9.66682 -1.64822 -2.25626
thorax -7.60688 -0.249909 -2.81671
lowerneck -1.0682 -0.11156 2.36862
upperneck -19.5333 0.914121 2.33817
head -5.72777 0.392345 0.270982
rclavicle -2.18663e-014 -2.14687e-014
rhumerus -30.7623 -1.01344 -89.579
rradius 50.4462
rwrist -4.62592
rhand -20.8197 -10.9824
rfingers 7.12502
rthumb 5.54842 -40.8897
lclavicle -2.18663e-014 -2.14687e-014
lhumerus -26.496 6.40121 81.3546
lradius 34.5519
lwrist 21.0764
lhand -22.6967 15.6711
lfingers 7.12502
lthumb 3.736 45.6181
rfemur -52.3363 -1.96298 26.3107
rtibia 74.1524
rfoot 2.16688 -8.15895
rtoes -14.2556
lfemur -63.7676 7.47444 -25.0712
ltibia 52.3561
lfoot 11.2457 -6.01661
ltoes -15.2099
978
root -30.7116 16.4209 -5.52871 -648.427 90.8684 -664.106
lowerback 36.7823 -2.65556 1.93965
upperback 9.67389 -1.64459 -2.24355
thorax -7.63704 -0.246154 -2.83729
lowerneck -1.09246 -0.124683 2.35448
upperneck -19.5028 0.891787 2.33417
head -5.71394 0.382829 0.273244
rclavicle -1.31198e-014 -1.39149e-014
rhumerus -30.8989 -1.18945 -89.4813
rradius 50.3312
rwrist -4.60442
rhand -20.8927 -10.9905
rfingers 7.12502
rthumb 5.47792 -40.8997
lclavicle -1.31198e-014 -1.39149e-014
lhumerus -26.5838 6.38974 81.3592
lradius 34.4874
lwrist 20.9955
lhand -22.712 15.6043
lfingers 7.12502
lthumb 3.72119 45.5516
rfemur -52.741 -1.98149 26.433
rtibia 74.2667
rfoot 2.34662 -8.15897
rtoes -14.1102
lfemur -64.107 7.53747 -24.7876
ltibia 54.9783
lfoot 9.44394 -5.59133
ltoes -16.5404
979
root -30.8262 16.4123 -5.52201 -647.213 90.9273 -662.762
lowerback 36.8929 -2.67123 1.99698
upperback 9.67675 -1.63616 -2.23719
thorax -7.67286 -0.24047 -2.86295
lowerneck -1.11119 -0.13239 2.34479
upperneck -19.4897 0.875359 2.31138
head -5.70646 0.377142 0.268506
rclavicle 3.29983e-014 2.54444e-014
rhumerus -31.0117 -1.33951 -89.3843
rradius 50.1876
rwrist -4.55932
rhand -20.9492 -10.9844
rfingers 7.12502
rthumb 5.42335 -40.895
lclavicle 3.29983e-014 2.54444e-014
lhumerus -26.668 6.39341 81.3635
lradius 34.4716
lwrist 20.9612
lhand -22.6481 15.7013
lfingers 7.12502
lthumb 3.7829 45.6475
rfemur -53.1257 -1.98313 26.5332
rtibia 74.3355
rfoot 2.58329 -8.12547
rtoes -13.9195
lfemur -64.4054 7.61235 -24.488
ltibia 57.6672
lfoot 7.88213 -4.86036
ltoes -17.8051
980
root -30.9389 16.4064 -5.5168 -644.992 90.9638 -660.415
lowerback 37.0076 -2.68201 2.04059
upperback 9.67513 -1.62812 -2.24015
thorax -7.71496 -0.235194 -2.89113
lowerneck -1.12308 -0.134879 2.33909
upperneck -19.4883 0.865768 2.27941
head -5.70382 0.37508 0.25985
rclavicle -1.51076e-014 5.56597e-015
rhumerus -31.104 -1.45936 -89.2944
rradius 50.0239
rwrist -4.49092
rhand -20.9837 -10.9714
rfingers 7.12502
rthumb 5.39012 -40.8828
lclavicle -1.51076e-014 5.56597e-015
lhumerus -26.7542 6.40839 81.362
lradius 34.4739
lwrist 20.9718
lhand -22.6035 15.8025
lfingers 7.12502
lthumb 3.826 45.7479
rfemur -53.4943 -1.98179 26.6087
rtibia 74.3685
rfoot 2.86082 -8.07365
rtoes -13.68
lfemur -64.6497 7.70359 -24.1892
ltibia 60.3841
lfoot 6.58284 -3.89949
ltoes -18.9044
981
root -31.0499 16.4015 -5.5129 -642.337 90.9772 -657.637
lowerback 37.1217 -2.68783 2.06559
upperback 9.67067 -1.62202 -2.25167
thorax -7.75989 -0.230926 -2.91793
lowerneck -1.11885 -0.131347 2.34016
upperneck -19.4975 0.864807 2.24154
head -5.7072 0.376926 0.247753
rclavicle -2.18663e-014 -2.8625e-014
rhumerus -31.1801 -1.55541 -89.2111
rradius 49.8467
rwrist -4.40421
rhand -20.9965 -10.9549
rfingers 7.12502
rthumb 5.37773 -40.8667
lclavicle -2.18663e-014 -2.8625e-014
lhumerus -26.8352 6.43358 81.3557
lradius 34.4758
lwrist 21.0129
lhand -22.5648 15.8601
lfingers 7.12502
lthumb 3.86335 45.8049
rfemur -53.8527 -1.99225 26.6612
rtibia 74.3853
rfoot 3.15324 -8.01555
rtoes -13.4003
lfemur -64.8312 7.81021 -23.901
ltibia 63.1078
lfoot 5.53386 -2.80084
ltoes -19.7709
